<svg xmlns="http://www.w3.org/2000/svg" width="306" height="192" fill="none"><rect width="305" height="191" x=".5" y=".5" fill="url(#a)" rx="7.5"/><rect width="305" height="191" x=".5" y=".5" stroke="#FFE5E5" rx="7.5"/><g clip-path="url(#b)"><path fill="#453037" d="M0 8a8 8 0 0 1 8-8h290a8 8 0 0 1 8 8v24H0V8Z"/><path fill="#fff" fill-rule="evenodd" d="M134.205 11.834a4.267 4.267 0 1 0 0 8.534 4.267 4.267 0 0 0 0-8.534Zm-5.333 4.266a5.333 5.333 0 1 1 10.665 0 5.333 5.333 0 0 1-10.665 0Zm5.333-2.607c.294 0 .533.239.533.533v1.54h1.659a.533.533 0 1 1 0 1.068h-1.659v1.659a.533.533 0 0 1-1.067 0v-1.66h-1.54a.533.533 0 1 1 0-1.066h1.54v-1.54c0-.295.239-.534.534-.534Z" clip-rule="evenodd"/><path fill="#fff" d="M144.794 19.6v-7.89h1.105l4.058 5.742h.082V11.71h1.192v7.89h-1.105l-4.052-5.731h-.088V19.6h-1.192Zm10.659.115c-1.739 0-2.789-1.187-2.789-3.068v-.005c0-1.854 1.072-3.096 2.729-3.096s2.674 1.198 2.674 2.98v.416h-4.211c.022 1.138.645 1.8 1.624 1.8.76 0 1.214-.378 1.357-.684l.021-.044 1.143-.005-.011.049c-.196.782-1.017 1.657-2.537 1.657Zm-.055-5.195c-.809 0-1.422.552-1.526 1.575h3.019c-.093-1.061-.689-1.575-1.493-1.575Zm5.059 5.08-1.64-5.939h1.192l1.066 4.583h.088l1.225-4.583h1.126l1.225 4.583h.093l1.061-4.583h1.176l-1.635 5.94h-1.22l-1.23-4.43h-.093l-1.225 4.43h-1.209Z"/><path fill="#fff" fill-opacity=".216" d="M180.604 9.7h.8v12.8h-.8z"/><path fill="#fff" fill-rule="evenodd" d="M198.471 10.767c.294 0 .533.24.533.534v.533h1.066V11.3a.534.534 0 0 1 1.067 0v.533h1.067V11.3a.533.533 0 1 1 1.066 0v.533a1.6 1.6 0 0 1 1.6 1.6v6.4a1.6 1.6 0 0 1-1.6 1.6h-5.333a1.6 1.6 0 0 1-1.6-1.6v-6.4a1.6 1.6 0 0 1 1.6-1.6V11.3c0-.295.239-.534.534-.534Zm-1.067 2.667c0-.295.239-.534.533-.534h5.333c.295 0 .533.24.533.534v6.4a.533.533 0 0 1-.533.532h-5.333a.533.533 0 0 1-.533-.533v-6.4Zm2.666.533a.533.533 0 0 0 0 1.067h2.134a.533.533 0 0 0 0-1.067h-2.134Zm2.667 2.667a.533.533 0 0 0-.533-.534h-3.2a.533.533 0 1 0 0 1.067h3.2a.533.533 0 0 0 .533-.534Zm-.533 1.6a.533.533 0 0 1 0 1.066h-3.2a.533.533 0 1 1 0-1.067h3.2Z" clip-rule="evenodd"/><path fill="#fff" d="M224.698 11.314c.756-.732 1.963-.721 2.742-.013a.25.25 0 0 1-.085.42 5.316 5.316 0 0 0-2.574 2.028.25.25 0 0 1-.424-.012 1.985 1.985 0 0 1 .341-2.423Zm9.519-.018c-.767-.72-1.974-.69-2.742.03a.25.25 0 0 0 .091.42 5.315 5.315 0 0 1 2.605 1.987.25.25 0 0 0 .424-.019c.43-.77.311-1.772-.378-2.418Zm-4.282 3.738a.533.533 0 0 0-1.066 0V16.9c0 .142.056.277.156.377l1.223 1.177a.533.533 0 1 0 .754-.754l-1.067-1.02v-1.646Z"/><path fill="#fff" fill-rule="evenodd" d="M224.9 16.837a4.596 4.596 0 1 1 8.346 2.658l1.005 1.005a.547.547 0 0 1-.773.773l-.967-.967a4.579 4.579 0 0 1-3.015 1.127 4.578 4.578 0 0 1-3.018-1.13l-.97.97a.545.545 0 1 1-.772-.773l1.008-1.008a4.573 4.573 0 0 1-.844-2.655Zm4.596-3.511a3.511 3.511 0 1 0 0 7.022 3.511 3.511 0 0 0 0-7.022Z" clip-rule="evenodd"/><rect width="25.599" height="25.599" x="245.402" y="3.301" fill="#DC646A" rx="4.8"/><g clip-path="url(#c)"><path fill="#fff" fill-rule="evenodd" d="M254.469 11.834h4.266c1.178 0 2.133.955 2.133 2.133v.204l1.656-.828a1.07 1.07 0 0 1 1.409.434c.088.159.135.338.135.52v3.607a1.073 1.073 0 0 1-.506.907 1.067 1.067 0 0 1-1.038.047l-1.656-.828v.203a2.133 2.133 0 0 1-2.133 2.133h-4.266a2.133 2.133 0 0 1-2.134-2.133v-4.266c0-1.178.955-2.133 2.134-2.133Zm6.399 5.003 2.133 1.067v-3.607l-2.133 1.066v1.474Zm-2.133-3.937h-4.266c-.59 0-1.067.478-1.067 1.067v4.266c0 .59.478 1.067 1.067 1.067h4.266c.589 0 1.067-.478 1.067-1.067l-.001-4.266c0-.589-.477-1.067-1.066-1.067Z" clip-rule="evenodd"/></g><path fill="#fff" d="M283.267 13.434a1.067 1.067 0 1 0 0-2.134 1.067 1.067 0 0 0 0 2.134Zm4.8-1.067a1.066 1.066 0 1 1-2.133 0 1.066 1.066 0 0 1 2.133 0Zm3.733 0a1.066 1.066 0 1 1-2.133 0 1.066 1.066 0 0 1 2.133 0Zm0 3.733a1.066 1.066 0 1 1-2.133 0 1.066 1.066 0 0 1 2.133 0Zm-4.8 1.067a1.066 1.066 0 1 0 .001-2.133 1.066 1.066 0 0 0-.001 2.133Zm-2.666-1.067a1.067 1.067 0 1 1-2.134 0 1.067 1.067 0 0 1 2.134 0Zm6.399 4.8a1.066 1.066 0 1 0 .001-2.133 1.066 1.066 0 0 0-.001 2.133Zm-2.666-1.067a1.066 1.066 0 1 1-2.133 0 1.066 1.066 0 0 1 2.133 0Zm-4.8 1.067a1.067 1.067 0 1 0 0-2.134 1.067 1.067 0 0 0 0 2.134Z"/></g><g filter="url(#d)"><g clip-path="url(#e)"><rect width="236.8" height="135.2" x="34" y="37" fill="#fff" rx="6.4"/><path fill="#656F7D" d="M47.565 59.8v-6.2h2.505c1.332 0 2.131.743 2.131 1.925v.008c0 .82-.434 1.5-1.169 1.766l1.354 2.501h-1.268l-1.216-2.333h-1.229V59.8h-1.108Zm1.108-3.184h1.28c.701 0 1.11-.391 1.11-1.057v-.009c0-.648-.426-1.052-1.13-1.052h-1.26v2.118Zm4.97 3.184v-6.2h4.012v.932h-2.904v1.68h2.745v.881h-2.745v1.775h2.904v.932h-4.013Zm8.07.155c-1.757 0-2.849-1.246-2.849-3.249v-.008c0-2.011 1.087-3.253 2.845-3.253 1.41 0 2.48.894 2.625 2.161v.035h-1.087l-.004-.018c-.16-.734-.752-1.22-1.534-1.22-1.053 0-1.71.881-1.71 2.29v.009c0 1.414.657 2.294 1.714 2.294.786 0 1.37-.438 1.53-1.121l.004-.022h1.087v.03c-.163 1.242-1.19 2.072-2.62 2.072Zm6.627 0c-1.817 0-2.934-1.26-2.934-3.253v-.009c0-1.998 1.134-3.248 2.934-3.248 1.805 0 2.93 1.25 2.93 3.248v.009c0 1.994-1.12 3.253-2.93 3.253Zm0-.959c1.105 0 1.8-.902 1.8-2.294v-.009c0-1.4-.7-2.29-1.8-2.29s-1.804.89-1.804 2.29v.009c0 1.392.687 2.294 1.804 2.294Zm4.299.804v-6.2h2.505c1.332 0 2.131.743 2.131 1.925v.008c0 .82-.434 1.5-1.169 1.766L77.46 59.8h-1.268l-1.216-2.333h-1.229V59.8H72.64Zm1.108-3.184h1.28c.701 0 1.11-.391 1.11-1.057v-.009c0-.648-.426-1.052-1.13-1.052h-1.26v2.118Zm4.969 3.184v-6.2h2.325c1.843 0 2.917 1.125 2.917 3.068v.008c0 1.985-1.061 3.124-2.917 3.124h-2.325Zm1.109-.932h1.07c1.233 0 1.933-.782 1.933-2.175v-.008c0-1.362-.718-2.153-1.934-2.153h-1.07v4.336Zm10.53 1.087c-1.758 0-2.849-1.246-2.849-3.249v-.008c0-2.011 1.087-3.253 2.844-3.253 1.41 0 2.48.894 2.626 2.161v.035h-1.087l-.004-.018c-.16-.734-.752-1.22-1.535-1.22-1.052 0-1.71.881-1.71 2.29v.009c0 1.414.658 2.294 1.715 2.294.786 0 1.37-.438 1.53-1.121l.004-.022h1.087v.03c-.163 1.242-1.19 2.072-2.621 2.072Zm3.954-.155v-6.2h1.109v5.268h2.844v.932H94.31Zm5.244 0v-6.2h1.109v6.2h-1.109Zm2.734 0v-6.2h2.475c1.259 0 2.11.829 2.11 2.07v.01c0 1.237-.851 2.07-2.11 2.07h-1.366v2.05h-1.109Zm2.205-5.294h-1.096v2.35h1.096c.795 0 1.259-.429 1.259-1.172v-.009c0-.743-.464-1.169-1.259-1.169Z"/><path fill="#4F5762" fill-rule="evenodd" d="M197.401 52.034c-.559 0-1.225.027-1.874.065l-.031-.533.031.532a2.468 2.468 0 0 0-2.327 2.328c-.038.65-.065 1.315-.065 1.874 0 .559.027 1.225.065 1.873a2.468 2.468 0 0 0 2.327 2.328c.649.038 1.315.065 1.874.065.559 0 1.225-.027 1.875-.065a2.469 2.469 0 0 0 2.327-2.326c.037-.65.065-1.316.065-1.875 0-.56-.028-1.225-.065-1.875a2.469 2.469 0 0 0-2.327-2.326 34.038 34.038 0 0 0-1.875-.065Zm-1.935-1a35.077 35.077 0 0 1 1.935-.067c.589 0 1.278.029 1.936.067a3.534 3.534 0 0 1 3.33 3.33c.039.658.067 1.347.067 1.936 0 .59-.028 1.279-.067 1.937a3.534 3.534 0 0 1-3.33 3.33c-.658.037-1.347.066-1.936.066s-1.277-.029-1.935-.067a3.535 3.535 0 0 1-3.331-3.331 35.091 35.091 0 0 1-.067-1.935c0-.589.029-1.277.067-1.935a3.535 3.535 0 0 1 3.331-3.331Zm-.199 3.852a1.243 1.243 0 0 1 1.882-1.065l2.355 1.414a1.243 1.243 0 0 1 0 2.13l-2.355 1.414a1.243 1.243 0 0 1-1.882-1.066v-2.827Zm1.334-.15a.176.176 0 0 0-.267.15v2.827c0 .137.149.222.267.151l2.354-1.413a.176.176 0 0 0 0-.302l-2.354-1.413Z" clip-rule="evenodd"/><path fill="#4F5762" d="M210.698 59.964c-1.917 0-3.126-1.369-3.126-3.544v-.01c0-2.146 1.223-3.538 3.117-3.538 1.538 0 2.63.872 2.874 2.18l.009.046h-1.05l-.014-.046c-.244-.802-.891-1.252-1.819-1.252-1.251 0-2.044 1.013-2.044 2.606v.01c0 1.617.797 2.62 2.068 2.62 1.106 0 1.86-.699 1.87-1.74v-.15h-1.739v-.848h2.775v.84c0 1.715-1.149 2.826-2.921 2.826Zm6.408-.066c-1.495 0-2.409-.998-2.409-2.639v-.009c0-1.636.919-2.64 2.409-2.64 1.486 0 2.405 1 2.405 2.64v.01c0 1.64-.914 2.638-2.405 2.638Zm0-.848c.872 0 1.369-.666 1.369-1.79v-.01c0-1.13-.497-1.79-1.369-1.79-.876 0-1.368.66-1.368 1.79v.01c0 1.13.492 1.79 1.368 1.79Zm8.166.783c-1.12 0-1.58-.394-1.58-1.374v-2.948h-.797v-.802h.797v-1.284h1.036v1.284h1.092v.802h-1.092v2.705c0 .548.206.773.708.773.155 0 .244-.005.384-.019v.811a3.251 3.251 0 0 1-.548.052Zm3.834.065c-1.495 0-2.409-.998-2.409-2.639v-.009c0-1.636.919-2.64 2.409-2.64 1.486 0 2.405 1 2.405 2.64v.01c0 1.64-.914 2.638-2.405 2.638Zm0-.848c.872 0 1.369-.666 1.369-1.79v-.01c0-1.13-.497-1.79-1.369-1.79-.876 0-1.368.66-1.368 1.79v.01c0 1.13.492 1.79 1.368 1.79Zm9.136.914c-1.879 0-3.051-1.36-3.051-3.539v-.01c0-2.184 1.167-3.543 3.047-3.543 1.49 0 2.634.942 2.812 2.287l-.005.024h-1.04v-.014c-.197-.83-.877-1.369-1.767-1.369-1.215 0-1.974 1.008-1.974 2.616v.009c0 1.603.759 2.61 1.978 2.61.896 0 1.566-.477 1.758-1.241l.009-.019h1.041v.028c-.197 1.299-1.298 2.161-2.808 2.161Zm4.121-.164v-7.087h1.017V59.8h-1.017Zm3.06-6a.637.637 0 0 1-.637-.633.638.638 0 0 1 1.275 0 .64.64 0 0 1-.638.633Zm-.51 6v-5.09h1.012v5.09h-1.012Zm2.493 1.697v-6.788h1.017v.802h.075c.296-.558.854-.89 1.566-.89 1.284 0 2.109 1.026 2.109 2.629v.01c0 1.612-.815 2.624-2.109 2.624-.698 0-1.294-.342-1.566-.89h-.075v2.503h-1.017Zm2.372-2.48c.849 0 1.36-.665 1.36-1.758v-.009c0-1.097-.511-1.758-1.36-1.758-.848 0-1.373.67-1.373 1.758v.01c0 1.087.525 1.757 1.373 1.757Zm5.47.881c-1.228 0-2.006-.576-2.104-1.43v-.004h1.017l.005.005c.126.384.497.642 1.101.642.628 0 1.064-.286 1.064-.703v-.01c0-.318-.239-.534-.829-.67l-.811-.187c-.961-.22-1.407-.657-1.407-1.402v-.005c0-.886.825-1.523 1.979-1.523 1.162 0 1.907.581 1.996 1.41v.006h-.97v-.01c-.098-.356-.459-.623-1.031-.623-.558 0-.961.276-.961.684v.01c0 .318.234.515.806.651l.806.183c.98.23 1.449.647 1.449 1.383v.01c0 .941-.9 1.583-2.11 1.583Z"/><path fill="#4F5762" fill-rule="evenodd" d="M53.2 77.3a1.6 1.6 0 0 0-1.6 1.6v2.311c0 .786.637 1.422 1.422 1.422h.356c.449 0 .85-.208 1.11-.533h-.755a.533.533 0 0 1 0-1.067H54.8V80.5h-1.067a.533.533 0 0 1 0-1.067H54.8V78.9h-1.067a.533.533 0 0 1 0-1.067h.66A1.596 1.596 0 0 0 53.2 77.3Zm-2.667 1.6a2.667 2.667 0 1 1 5.334 0v2.311a2.489 2.489 0 0 1-2.49 2.489h-.355a2.489 2.489 0 0 1-2.489-2.489V78.9Zm-1.066 2.133c.294 0 .533.24.533.534a2.667 2.667 0 0 0 2.667 2.666h1.066a2.667 2.667 0 0 0 2.667-2.666.533.533 0 1 1 1.067 0 3.733 3.733 0 0 1-3.734 3.733v1.067h.8a.533.533 0 1 1 0 1.066h-2.666a.533.533 0 1 1 0-1.066h.8V85.3a3.733 3.733 0 0 1-3.734-3.733c0-.295.24-.534.534-.534Z" clip-rule="evenodd"/><path fill="#2A2E34" d="M70.206 85.6v-7.891h1.143l2.702 6.584h.087l2.702-6.584h1.143V85.6h-.919v-6.027h-.06L74.51 85.6h-.831l-2.494-6.027h-.06V85.6h-.919Zm11.168.104c-1.121 0-1.969-.678-1.969-1.75v-.011c0-1.05.777-1.657 2.15-1.74l1.69-.103v-.536c0-.727-.444-1.121-1.324-1.121-.706 0-1.17.263-1.324.722l-.005.016h-.952l.006-.033c.153-.924 1.05-1.547 2.307-1.547 1.439 0 2.243.738 2.243 1.963V85.6h-.952v-.87h-.087c-.372.63-.99.974-1.783.974Zm-.996-1.772c0 .596.509.946 1.193.946.968 0 1.673-.634 1.673-1.476v-.536l-1.575.098c-.897.055-1.29.372-1.29.957v.011Zm7.848 1.772c-1.651 0-2.707-1.198-2.707-3.068v-.011c0-1.832 1.05-3.024 2.702-3.024 1.433 0 2.291.826 2.466 1.876l.006.032h-.946l-.006-.016c-.147-.58-.672-1.05-1.52-1.05-1.061 0-1.728.853-1.728 2.182v.01c0 1.357.678 2.227 1.728 2.227.793 0 1.296-.35 1.515-1.006l.01-.033.941-.006-.01.06c-.241 1.067-1.034 1.827-2.45 1.827Zm3.856-.104v-7.891h3.019c1.45 0 2.335.76 2.335 1.963v.01c0 .816-.602 1.56-1.362 1.696v.088c1.078.136 1.761.875 1.761 1.914v.01c0 1.384-.995 2.21-2.674 2.21h-3.079Zm2.811-7.022h-1.826v2.532h1.575c1.192 0 1.799-.426 1.799-1.258v-.01c0-.799-.569-1.264-1.548-1.264Zm.028 3.38h-1.854v2.773h1.946c1.187 0 1.81-.482 1.81-1.39v-.01c0-.908-.645-1.373-1.902-1.373Zm6.704 3.746c-1.678 0-2.718-1.16-2.718-3.046v-.011c0-1.892 1.04-3.046 2.718-3.046 1.679 0 2.718 1.154 2.718 3.046v.01c0 1.888-1.039 3.047-2.718 3.047Zm0-.842c1.116 0 1.745-.815 1.745-2.204v-.011c0-1.395-.629-2.204-1.745-2.204-1.115 0-1.744.81-1.744 2.204v.01c0 1.39.629 2.205 1.744 2.205Zm6.498.842c-1.679 0-2.718-1.16-2.718-3.046v-.011c0-1.892 1.039-3.046 2.718-3.046s2.718 1.154 2.718 3.046v.01c0 1.888-1.039 3.047-2.718 3.047Zm0-.842c1.115 0 1.744-.815 1.744-2.204v-.011c0-1.395-.629-2.204-1.744-2.204-1.116 0-1.745.81-1.745 2.204v.01c0 1.39.629 2.205 1.745 2.205Zm4.129.738v-8.236h.951v4.916h.088l2.548-2.575h1.154l-2.57 2.477 2.74 3.418h-1.198l-2.209-2.773-.553.536V85.6h-.951Zm9.057 0v-7.891h2.975c1.482 0 2.532 1.022 2.532 2.52v.012c0 1.498-1.05 2.543-2.532 2.543h-1.991V85.6h-.984Zm2.723-7.016h-1.739v3.325h1.739c1.127 0 1.778-.618 1.778-1.657v-.011c0-1.04-.651-1.657-1.778-1.657Zm4.157 7.016v-5.895h.951v.875h.088c.224-.618.776-.98 1.575-.98.18 0 .383.023.476.04v.923a3.434 3.434 0 0 0-.586-.054c-.907 0-1.553.574-1.553 1.438V85.6h-.951Zm6.404.104c-1.679 0-2.718-1.16-2.718-3.046v-.011c0-1.892 1.039-3.046 2.718-3.046s2.718 1.154 2.718 3.046v.01c0 1.888-1.039 3.047-2.718 3.047Zm0-.842c1.116 0 1.745-.815 1.745-2.204v-.011c0-1.395-.629-2.204-1.745-2.204s-1.745.81-1.745 2.204v.01c0 1.39.629 2.205 1.745 2.205Zm7.225.738v-7.891h1.143l2.701 6.584h.088l2.701-6.584h1.143V85.6h-.918v-6.027h-.061l-2.493 6.027h-.832l-2.493-6.027h-.06V85.6h-.919Zm10.052-7.033a.659.659 0 0 1-.657-.656.658.658 0 0 1 1.313 0 .658.658 0 0 1-.656.656Zm-.482 7.033v-5.895h.952V85.6h-.952Zm5.037.104c-1.651 0-2.707-1.198-2.707-3.068v-.011c0-1.832 1.05-3.024 2.702-3.024 1.433 0 2.291.826 2.466 1.876l.006.032h-.946l-.006-.016c-.147-.58-.672-1.05-1.52-1.05-1.061 0-1.728.853-1.728 2.182v.01c0 1.357.678 2.227 1.728 2.227.793 0 1.296-.35 1.515-1.006l.011-.033.94-.006-.011.06c-.24 1.067-1.033 1.827-2.45 1.827Zm3.736-.104v-5.895h.952v.875h.087c.224-.618.777-.98 1.575-.98.18 0 .383.023.476.04v.923a3.432 3.432 0 0 0-.585-.054c-.908 0-1.553.574-1.553 1.438V85.6h-.952Zm6.404.104c-1.679 0-2.718-1.16-2.718-3.046v-.011c0-1.892 1.039-3.046 2.718-3.046s2.718 1.154 2.718 3.046v.01c0 1.888-1.039 3.047-2.718 3.047Zm0-.842c1.116 0 1.745-.815 1.745-2.204v-.011c0-1.395-.629-2.204-1.745-2.204-1.115 0-1.744.81-1.744 2.204v.01c0 1.39.629 2.205 1.744 2.205Zm4.742.793a.717.717 0 0 1-.711-.711c0-.394.323-.711.711-.711a.71.71 0 0 1 .711.71.713.713 0 0 1-.711.712Zm3.205 0a.717.717 0 0 1-.711-.711c0-.394.323-.711.711-.711a.71.71 0 0 1 .711.71.713.713 0 0 1-.711.712Zm3.205 0a.717.717 0 0 1-.711-.711c0-.394.323-.711.711-.711a.71.71 0 0 1 .711.71.713.713 0 0 1-.711.712Z"/><path fill="#4F5762" fill-rule="evenodd" d="M48.933 104.548c0-.187.166-.381.427-.381h7.68c.26 0 .427.194.427.381v4.571c0 .186-.166.381-.427.381h-7.68c-.26 0-.427-.195-.427-.381v-4.571Zm.427-1.448c-.8 0-1.493.624-1.493 1.448v4.571c0 .824.693 1.448 1.493 1.448h7.68c.8 0 1.493-.624 1.493-1.448v-4.571c0-.824-.693-1.448-1.493-1.448h-7.68Zm.64 8.533a.534.534 0 0 0 0 1.067h6.4a.533.533 0 0 0 0-1.067H50Z" clip-rule="evenodd"/><path fill="#2A2E34" d="M70.206 111.4v-7.891h4.79v.886h-3.805v2.712h3.494v.875h-3.494v3.418h-.985Zm8.144.104c-1.34 0-2.03-.788-2.03-2.182v-3.817h.952v3.587c0 1.061.383 1.57 1.324 1.57 1.039 0 1.591-.635 1.591-1.668v-3.489h.952v5.895h-.952v-.88H80.1c-.29.628-.886.984-1.75.984Zm4.5-.104v-8.236h.952v8.236h-.951Zm2.713 0v-8.236h.952v8.236h-.952Zm8.396.186c-1.728 0-2.844-.908-2.959-2.193l-.005-.06h.984l.005.06c.072.787.892 1.285 2.03 1.285 1.071 0 1.853-.552 1.853-1.356v-.006c0-.656-.454-1.104-1.537-1.345l-.874-.191c-1.581-.35-2.265-1.078-2.265-2.221v-.005c.006-1.307 1.149-2.231 2.778-2.231 1.576 0 2.675.929 2.757 2.105l.005.077h-.984l-.011-.071c-.11-.695-.766-1.209-1.794-1.204-.984.006-1.744.471-1.744 1.297v.005c0 .629.432 1.056 1.504 1.291l.875.197c1.646.366 2.296 1.028 2.296 2.165v.006c0 1.476-1.154 2.395-2.914 2.395Zm6.726-.082c-1.651 0-2.707-1.198-2.707-3.068v-.011c0-1.832 1.05-3.024 2.702-3.024 1.433 0 2.291.826 2.466 1.876l.006.032h-.946l-.006-.016c-.147-.58-.672-1.05-1.52-1.05-1.06 0-1.728.853-1.728 2.182v.011c0 1.356.678 2.226 1.728 2.226.793 0 1.296-.35 1.515-1.007l.011-.032.94-.006-.011.06c-.24 1.067-1.033 1.827-2.45 1.827Zm3.736-.104v-5.895h.952v.875h.087c.224-.618.777-.979 1.575-.979.18 0 .383.022.476.038v.924a3.412 3.412 0 0 0-.585-.054c-.908 0-1.553.574-1.553 1.438v3.653h-.952Zm6.388.104c-1.685 0-2.702-1.181-2.702-3.03v-.005c0-1.821 1.039-3.068 2.642-3.068 1.602 0 2.575 1.192 2.575 2.953v.372h-4.243c.027 1.219.7 1.93 1.75 1.93.798 0 1.29-.377 1.449-.733l.022-.049h.951l-.011.044c-.202.798-1.044 1.586-2.433 1.586Zm-.066-5.256c-.875 0-1.542.597-1.646 1.718h3.259c-.098-1.165-.743-1.718-1.613-1.718Zm6.344 5.256c-1.684 0-2.701-1.181-2.701-3.03v-.005c0-1.821 1.039-3.068 2.641-3.068s2.576 1.192 2.576 2.953v.372h-4.244c.027 1.219.7 1.93 1.75 1.93.799 0 1.291-.377 1.449-.733l.022-.049h.952l-.011.044c-.203.798-1.045 1.586-2.434 1.586Zm-.065-5.256c-.875 0-1.543.597-1.647 1.718h3.26c-.099-1.165-.744-1.718-1.613-1.718Zm3.937 5.152v-5.895h.952v.886h.087c.296-.624.848-.99 1.718-.99 1.323 0 2.061.782 2.061 2.182v3.817h-.951v-3.587c0-1.061-.438-1.57-1.378-1.57-.941 0-1.537.634-1.537 1.668v3.489h-.952Z"/><path fill="#87909E" d="M203.747 111.4v-5.827h-.075l-1.72 1.247v-.89l1.8-1.294h.839v6.764h-.844Zm5.887 0v-1.402h-3.295v-.768c.914-1.533 1.95-3.183 2.897-4.594h1.223v4.608h.961v.754h-.961v1.402h-.825Zm-2.432-2.152h2.437v-3.829h-.056a85.135 85.135 0 0 0-2.381 3.773v.056Zm8.611 2.152v-1.402h-3.296v-.768c.914-1.533 1.95-3.183 2.897-4.594h1.224v4.608h.96v.754h-.96v1.402h-.825Zm-2.433-2.152h2.437v-3.829h-.056a86.068 86.068 0 0 0-2.381 3.773v.056Zm7.786 2.311c-1.496 0-2.386-1.364-2.386-3.539v-.009c0-2.175.89-3.534 2.386-3.534 1.495 0 2.395 1.359 2.395 3.534v.009c0 2.175-.9 3.539-2.395 3.539Zm0-.736c.97 0 1.547-1.078 1.547-2.803v-.009c0-1.725-.577-2.794-1.547-2.794-.971 0-1.538 1.069-1.538 2.794v.009c0 1.725.567 2.803 1.538 2.803Zm3.29.577 1.73-2.527-1.748-2.526h.96l1.2 1.88h.075l1.186-1.88h.914l-1.715 2.494 1.739 2.559h-.956l-1.196-1.908h-.075l-1.2 1.908h-.914Zm7.646-6.923c1.237 0 2.545.871 2.545 3.417v.009c0 2.306-.961 3.656-2.602 3.656-1.134 0-1.978-.665-2.207-1.664l-.015-.061h.849l.019.052c.206.567.679.919 1.364.919 1.228 0 1.729-1.2 1.781-2.611.005-.052.005-.108.005-.16h-.089c-.249.553-.886 1.046-1.8 1.046-1.271 0-2.218-.966-2.218-2.264v-.01c0-1.35 1.004-2.329 2.368-2.329Zm-.005 3.867c.876 0 1.542-.642 1.542-1.524v-.004c0-.891-.67-1.594-1.528-1.594-.848 0-1.528.689-1.528 1.565v.01c0 .9.637 1.547 1.514 1.547Zm6.169 3.215c-1.496 0-2.386-1.364-2.386-3.539v-.009c0-2.175.89-3.534 2.386-3.534 1.495 0 2.395 1.359 2.395 3.534v.009c0 2.175-.9 3.539-2.395 3.539Zm0-.736c.97 0 1.547-1.078 1.547-2.803v-.009c0-1.725-.577-2.794-1.547-2.794-.971 0-1.538 1.069-1.538 2.794v.009c0 1.725.567 2.803 1.538 2.803Zm6.047.736c-1.496 0-2.386-1.364-2.386-3.539v-.009c0-2.175.89-3.534 2.386-3.534 1.495 0 2.395 1.359 2.395 3.534v.009c0 2.175-.9 3.539-2.395 3.539Zm0-.736c.97 0 1.546-1.078 1.546-2.803v-.009c0-1.725-.576-2.794-1.546-2.794-.971 0-1.538 1.069-1.538 2.794v.009c0 1.725.567 2.803 1.538 2.803Zm3.787 2.265v-6.741h.816v.806h.075c.309-.562.872-.895 1.575-.895 1.279 0 2.118 1.036 2.118 2.611v.009c0 1.585-.834 2.611-2.118 2.611-.694 0-1.299-.347-1.575-.886h-.075v2.485h-.816Zm2.278-2.321c.924 0 1.472-.712 1.472-1.889v-.009c0-1.177-.548-1.889-1.472-1.889-.919 0-1.481.722-1.481 1.889v.009c0 1.167.562 1.889 1.481 1.889Zm2.944.633 1.73-2.527-1.749-2.526h.961l1.2 1.88h.075l1.186-1.88h.914l-1.716 2.494 1.74 2.559h-.957l-1.195-1.908h-.075l-1.2 1.908h-.914Z"/><rect width="211.2" height="25.8" x="46.8" y="133.6" fill="#DC646A" rx="4.8"/><path fill="#fff" d="M88.609 150.191c-1.783 0-2.926-.902-3.035-2.231l-.006-.071h1.203l.006.06c.065.717.826 1.176 1.881 1.176 1.006 0 1.723-.503 1.723-1.236v-.005c0-.607-.427-1.001-1.472-1.225l-.864-.186c-1.602-.339-2.29-1.083-2.29-2.248v-.005c.005-1.362 1.186-2.303 2.86-2.303 1.673 0 2.766.946 2.854 2.171l.005.077h-1.186l-.011-.071c-.104-.646-.722-1.116-1.68-1.11-.923 0-1.607.432-1.607 1.175v.006c0 .585.416.968 1.438 1.187l.859.191c1.657.355 2.335 1.023 2.335 2.193v.005c0 1.51-1.176 2.45-3.013 2.45Zm6.612-.153c-1.307 0-1.843-.459-1.843-1.602v-3.44h-.93v-.935h.93v-1.498h1.208v1.498h1.275v.935h-1.275v3.156c0 .639.241.902.826.902.18 0 .285-.006.449-.022v.946c-.192.033-.41.06-.64.06Zm3.533.06c-1.132 0-1.969-.689-1.969-1.766v-.011c0-1.061.799-1.679 2.215-1.766l1.608-.093v-.525c0-.651-.41-1.012-1.214-1.012-.657 0-1.089.241-1.23.662l-.006.022h-1.143l.005-.039c.142-.973 1.078-1.624 2.428-1.624 1.493 0 2.336.744 2.336 1.991V150h-1.176v-.842h-.093c-.35.601-.974.94-1.761.94Zm-.788-1.815c0 .547.465.869 1.105.869.886 0 1.537-.579 1.537-1.345v-.509l-1.45.093c-.82.05-1.192.345-1.192.881v.011Zm5.371 1.717v-5.939h1.187v.897h.087c.214-.629.766-1.001 1.559-1.001.191 0 .399.027.519.055v1.093a3.143 3.143 0 0 0-.639-.071c-.908 0-1.526.558-1.526 1.417V150h-1.187Zm6.727.038c-1.307 0-1.843-.459-1.843-1.602v-3.44h-.93v-.935h.93v-1.498h1.209v1.498h1.274v.935h-1.274v3.156c0 .639.24.902.825.902.181 0 .285-.006.449-.022v.946c-.192.033-.41.06-.64.06Zm4.846-.038v-5.939h1.187v.897h.087c.213-.629.766-1.001 1.559-1.001.191 0 .399.027.519.055v1.093a3.145 3.145 0 0 0-.64-.071c-.907 0-1.525.558-1.525 1.417V150h-1.187Zm6.705.115c-1.739 0-2.789-1.187-2.789-3.068v-.006c0-1.853 1.072-3.095 2.729-3.095s2.674 1.198 2.674 2.981v.415h-4.211c.022 1.138.645 1.799 1.624 1.799.76 0 1.214-.377 1.356-.683l.022-.044 1.143-.005-.011.049c-.197.782-1.017 1.657-2.537 1.657Zm-.055-5.195c-.809 0-1.422.552-1.526 1.575h3.019c-.093-1.061-.689-1.575-1.493-1.575Zm6.459 5.195c-1.734 0-2.794-1.181-2.794-3.101v-.011c0-1.881 1.055-3.057 2.789-3.057 1.493 0 2.384.842 2.548 1.996v.028l-1.137.005-.006-.016c-.131-.586-.612-1.023-1.4-1.023-.99 0-1.586.787-1.586 2.067v.011c0 1.313.607 2.111 1.586 2.111.744 0 1.203-.339 1.395-.979l.011-.027h1.137l-.011.049c-.213 1.154-1.061 1.947-2.532 1.947Zm6.284 0c-1.745 0-2.811-1.165-2.811-3.079v-.011c0-1.909 1.072-3.079 2.811-3.079 1.734 0 2.805 1.165 2.805 3.079v.011c0 1.914-1.066 3.079-2.805 3.079Zm0-.99c1.017 0 1.597-.777 1.597-2.089v-.011c0-1.318-.58-2.089-1.597-2.089-1.023 0-1.597.771-1.597 2.089v.011c0 1.318.574 2.089 1.597 2.089Zm4.102.875v-5.939h1.187v.897h.087c.213-.629.766-1.001 1.559-1.001.191 0 .399.027.519.055v1.093a3.145 3.145 0 0 0-.64-.071c-.907 0-1.525.558-1.525 1.417V150h-1.187Zm6.377.098c-1.493 0-2.461-1.197-2.461-3.062v-.011c0-1.881.951-3.068 2.461-3.068.815 0 1.509.405 1.826 1.045h.093v-3.271h1.181V150h-1.181v-.935h-.093c-.344.651-.995 1.033-1.826 1.033Zm.339-1.011c.99 0 1.597-.782 1.597-2.051v-.011c0-1.269-.613-2.051-1.597-2.051-.996 0-1.592.777-1.592 2.051v.011c0 1.274.596 2.051 1.592 2.051Zm5.026-6.087a.744.744 0 0 1-.744-.738c0-.41.334-.744.744-.744.405 0 .744.334.744.744a.747.747 0 0 1-.744.738Zm-.596 7v-5.939h1.181V150h-1.181Zm2.789 0v-5.939h1.187v.902h.087c.29-.634.859-1.017 1.723-1.017 1.329 0 2.062.793 2.062 2.209V150h-1.182v-3.566c0-.984-.41-1.471-1.279-1.471-.87 0-1.411.596-1.411 1.553V150h-1.187Zm9.106 2.095c-1.509 0-2.439-.662-2.581-1.652l.011-.011h1.197l.006.011c.098.41.579.7 1.383.7.979 0 1.559-.459 1.559-1.269v-1.17h-.088c-.36.645-1.017 1.006-1.832 1.006-1.525 0-2.466-1.176-2.466-2.849v-.011c0-1.695.946-2.893 2.488-2.893.832 0 1.477.41 1.821 1.077h.071v-.973h1.182v5.819c0 1.35-1.067 2.215-2.751 2.215Zm-.016-3.364c1.006 0 1.613-.765 1.613-1.876v-.01c0-1.105-.613-1.882-1.613-1.882-1.012 0-1.581.777-1.581 1.882v.01c0 1.105.569 1.876 1.581 1.876Z"/><rect width="16" height="16.2" x="168.7" y="138.4" fill="#fff" fill-opacity=".2" rx="3.2"/><path fill="#fff" d="M175.223 145.88h-.642a1.375 1.375 0 0 1-1.387-1.374 1.387 1.387 0 1 1 2.775 0v.638h1.458v-.638a1.39 1.39 0 1 1 2.779 0c0 .769-.623 1.374-1.392 1.374h-.637v1.476h.637c.769.005 1.392.605 1.392 1.374 0 .768-.623 1.392-1.392 1.392a1.391 1.391 0 0 1-1.387-1.392v-.633h-1.458v.633c0 .768-.624 1.392-1.388 1.392a1.388 1.388 0 0 1-1.387-1.392c0-.769.623-1.369 1.387-1.374h.642v-1.476Zm-.632-.727h.632v-.637a.651.651 0 0 0-.642-.652.645.645 0 0 0 .01 1.289Zm4.214 0a.646.646 0 0 0 .009-1.289.647.647 0 0 0-.637.652v.637h.628Zm-2.836 2.213h1.458v-1.491h-1.458v1.491Zm-1.378.717a.642.642 0 1 0-.01 1.284.65.65 0 0 0 .642-.651v-.633h-.632Zm4.214 0h-.628v.633c0 .361.29.651.637.651a.64.64 0 0 0 .638-.642.644.644 0 0 0-.647-.642Z"/><rect width="16.4" height="16.2" x="186.3" y="138.4" fill="#fff" fill-opacity=".2" rx="3.2"/><path fill="#fff" d="M192.911 143.25c.361 0 .647.192.801.525l2.33 5.161c.052.108.131.159.263.159h1.514c.258 0 .464.197.464.446a.452.452 0 0 1-.464.445h-1.735c-.389 0-.632-.159-.797-.52l-2.343-5.171a.25.25 0 0 0-.244-.154h-1.519a.448.448 0 0 1-.464-.446.45.45 0 0 1 .464-.445h1.73Zm4.908 0a.442.442 0 1 1 0 .886h-2.227a.442.442 0 1 1 0-.886h2.227Z"/><rect width="16" height="16.2" x="204.3" y="138.4" fill="#fff" fill-opacity=".2" rx="3.2"/><path fill="#fff" d="M212.309 150.164c-1.528 0-2.507-.773-2.601-1.912l-.005-.061h1.031l.005.051c.056.614.708 1.008 1.613 1.008.862 0 1.476-.431 1.476-1.059v-.005c0-.52-.366-.858-1.261-1.05l-.74-.159c-1.374-.291-1.965-.929-1.965-1.927v-.005c.005-1.167 1.018-1.973 2.452-1.973s2.372.811 2.447 1.861l.005.065h-1.018l-.009-.061c-.089-.553-.619-.956-1.439-.951-.792 0-1.378.37-1.378 1.008v.004c0 .502.356.83 1.233 1.018l.736.164c1.42.304 2.001.876 2.001 1.879v.005c0 1.294-1.008 2.1-2.583 2.1Z"/><path fill="#E8EAED" d="M255.601 77.8a.8.8 0 0 1 .8-.8h.8a.8.8 0 0 1 .8.8v8a.8.8 0 0 1-.8.8h-.8a.8.8 0 0 1-.8-.8v-8Zm-4 0a.8.8 0 0 1 .8-.8h.8a.8.8 0 0 1 .8.8v8a.8.8 0 0 1-.8.8h-.8a.8.8 0 0 1-.8-.8v-8Zm-4 0a.8.8 0 0 1 .8-.8h.8a.8.8 0 0 1 .8.8v8a.8.8 0 0 1-.8.8h-.8a.8.8 0 0 1-.8-.8v-8Zm-4 0a.8.8 0 0 1 .8-.8h.8a.8.8 0 0 1 .8.8v8a.8.8 0 0 1-.8.8h-.8a.8.8 0 0 1-.8-.8v-8Zm-4 0a.8.8 0 0 1 .8-.8h.8a.8.8 0 0 1 .8.8v8a.8.8 0 0 1-.8.8h-.8a.8.8 0 0 1-.8-.8v-8Zm-4 0a.8.8 0 0 1 .8-.8h.8a.8.8 0 0 1 .8.8v8a.8.8 0 0 1-.8.8h-.8a.8.8 0 0 1-.8-.8v-8Zm-4 0a.8.8 0 0 1 .8-.8h.8a.8.8 0 0 1 .8.8v8a.8.8 0 0 1-.8.8h-.8a.8.8 0 0 1-.8-.8v-8Zm-4 0a.8.8 0 0 1 .8-.8h.8a.8.8 0 0 1 .8.8v8a.8.8 0 0 1-.8.8h-.8a.8.8 0 0 1-.8-.8v-8Zm-4 0a.8.8 0 0 1 .8-.8h.8a.8.8 0 0 1 .8.8v8a.8.8 0 0 1-.8.8h-.8a.8.8 0 0 1-.8-.8v-8Zm-4 0a.8.8 0 0 1 .8-.8h.8a.8.8 0 0 1 .8.8v8a.8.8 0 0 1-.8.8h-.8a.8.8 0 0 1-.8-.8v-8Z"/><mask id="f" width="40" height="10" x="219" y="77" maskUnits="userSpaceOnUse" style="mask-type:alpha"><path fill="#E8EAED" d="M255.601 77.8a.8.8 0 0 1 .8-.8h.8a.8.8 0 0 1 .8.8v8a.8.8 0 0 1-.8.8h-.8a.8.8 0 0 1-.8-.8v-8Zm-4 0a.8.8 0 0 1 .8-.8h.8a.8.8 0 0 1 .8.8v8a.8.8 0 0 1-.8.8h-.8a.8.8 0 0 1-.8-.8v-8Zm-4 0a.8.8 0 0 1 .8-.8h.8a.8.8 0 0 1 .8.8v8a.8.8 0 0 1-.8.8h-.8a.8.8 0 0 1-.8-.8v-8Zm-4 0a.8.8 0 0 1 .8-.8h.8a.8.8 0 0 1 .8.8v8a.8.8 0 0 1-.8.8h-.8a.8.8 0 0 1-.8-.8v-8Zm-4 0a.8.8 0 0 1 .8-.8h.8a.8.8 0 0 1 .8.8v8a.8.8 0 0 1-.8.8h-.8a.8.8 0 0 1-.8-.8v-8Zm-4 0a.8.8 0 0 1 .8-.8h.8a.8.8 0 0 1 .8.8v8a.8.8 0 0 1-.8.8h-.8a.8.8 0 0 1-.8-.8v-8Zm-4 0a.8.8 0 0 1 .8-.8h.8a.8.8 0 0 1 .8.8v8a.8.8 0 0 1-.8.8h-.8a.8.8 0 0 1-.8-.8v-8Zm-4 0a.8.8 0 0 1 .8-.8h.8a.8.8 0 0 1 .8.8v8a.8.8 0 0 1-.8.8h-.8a.8.8 0 0 1-.8-.8v-8Zm-4 0a.8.8 0 0 1 .8-.8h.8a.8.8 0 0 1 .8.8v8a.8.8 0 0 1-.8.8h-.8a.8.8 0 0 1-.8-.8v-8Zm-4 0a.8.8 0 0 1 .8-.8h.8a.8.8 0 0 1 .8.8v8a.8.8 0 0 1-.8.8h-.8a.8.8 0 0 1-.8-.8v-8Z"/></mask><g mask="url(#f)"><path fill="#3DB88B" d="M219.601 77h25.6v9.6h-25.6z"/></g></g><rect width="237.6" height="136" x="33.6" y="36.6" stroke="#000" stroke-opacity=".055" stroke-width=".8" rx="6.8"/></g><defs><clipPath id="b"><path fill="#fff" d="M0 8a8 8 0 0 1 8-8h290a8 8 0 0 1 8 8v24H0V8Z"/></clipPath><clipPath id="c"><path fill="#fff" d="M251.802 9.7h12.799v12.8h-12.799z"/></clipPath><clipPath id="e"><rect width="236.8" height="135.2" x="34" y="37" fill="#fff" rx="6.4"/></clipPath><linearGradient id="a" x1="153" x2="153" y1="0" y2="192" gradientUnits="userSpaceOnUse"><stop stop-color="#fff"/><stop offset="1" stop-color="#FFF7F7"/></linearGradient><filter id="d" width="270.4" height="168.8" x="17.2" y="24.2" color-interpolation-filters="sRGB" filterUnits="userSpaceOnUse"><feFlood flood-opacity="0" result="BackgroundImageFix"/><feColorMatrix in="SourceAlpha" result="hardAlpha" values="0 0 0 0 0 0 0 0 0 0 0 0 0 0 0 0 0 0 127 0"/><feOffset dy="4"/><feGaussianBlur stdDeviation="8"/><feColorMatrix values="0 0 0 0 0 0 0 0 0 0 0 0 0 0 0 0 0 0 0.08 0"/><feBlend in2="BackgroundImageFix" result="effect1_dropShadow_1_4020"/><feBlend in="SourceGraphic" in2="effect1_dropShadow_1_4020" result="shape"/></filter></defs></svg>