<svg width="2592" height="381" viewBox="0 0 2592 381" fill="none" xmlns="http://www.w3.org/2000/svg">
<path fill-rule="evenodd" clip-rule="evenodd" d="M2087.66 291.11L2097.79 230.088H1853.54L1855.2 220.356C1863.33 171.582 1871.45 122.918 1879.46 74.1449L1880.69 67.1463H2124.94L2135.29 5.14062H1814.48L1766.96 291.11H2087.66Z" fill="#4D4D4D"/>
<path fill-rule="evenodd" clip-rule="evenodd" d="M1062.69 213.793L1069.59 202.42C1072.93 196.952 1076.38 191.703 1079.94 186.344C1084.17 180.111 1088.4 173.878 1092.74 167.644C1098.19 159.771 1103.75 152.006 1109.43 144.351C1116.77 134.291 1124.23 124.12 1131.57 113.95L1193 29.1985C1199.12 20.778 1206.46 13.4512 1215.25 7.76459C1223.93 2.29674 1233.61 0 1243.74 0C1253.31 0 1261.88 2.5153 1269.44 8.6393C1277.57 15.2007 1280.9 25.5896 1282.24 35.6505L1312.62 290.999H1233.95L1223.93 192.687C1222.26 177.815 1220.7 163.051 1219.37 148.179C1218.26 135.822 1217.59 123.464 1217.25 111.107L1216.7 91.3132L1205.9 107.936C1198.45 119.527 1190.88 131.01 1183.31 142.492C1172.74 158.568 1162.06 174.534 1151.04 190.281L1098.74 265.191C1094.74 271.096 1090.29 277.002 1084.95 281.813C1081.16 285.313 1076.93 288.593 1072.37 290.89C1068.59 292.858 1064.47 294.28 1060.24 294.936C1055.35 295.701 1050.45 296.029 1045.55 296.029C1040.77 296.029 1035.98 295.701 1031.2 295.045C1027.53 294.499 1024.08 293.186 1020.96 291.218C1017.51 289.031 1014.51 285.969 1012.06 282.688C1008.61 278.095 1006.05 272.19 1004.16 266.831L976.785 191.375C973.558 182.298 970.331 173.331 967.215 164.254C964.656 157.037 962.097 149.71 959.537 142.492C957.423 136.806 955.42 131.01 953.751 125.214C952.193 119.965 950.635 114.825 949.077 109.576L943.736 91.8602L937.393 109.248C932.831 121.715 927.935 133.963 922.927 146.211C916.696 161.193 910.464 176.065 904.01 190.938L860.39 291.218H784.165L900.338 37.6188C905.568 26.2457 912.912 15.9662 923.595 9.29541C932.72 3.49949 942.623 0.218928 953.417 0.218928C962.097 0.218928 971.11 1.85932 978.12 7.43653C984.908 12.795 989.471 19.9032 992.475 27.8862L1025.86 112.31C1029.86 122.48 1033.87 132.65 1037.77 142.82C1040.77 150.585 1043.77 158.349 1046.67 166.113C1049 172.237 1051.12 178.471 1053.23 184.595C1055.01 190.063 1056.9 195.64 1058.68 201.108L1062.69 213.793Z" fill="#4D4D4D"/>
<path fill-rule="evenodd" clip-rule="evenodd" d="M1383.72 5.14062C1367.81 100.5 1352.01 195.86 1336.21 291.11H1412.32C1424.45 218.169 1436.58 145.227 1448.71 72.2861L1449.93 65.287H1642.89C1666.81 65.287 1683.39 85.8463 1679.5 109.467C1675.71 132.104 1654.35 150.914 1631.43 150.914L1474.19 150.804L1464.18 210.951L1580.68 211.06L1633.54 291.219H1736.58C1717.33 265.411 1698.86 238.946 1678.5 214.231L1671.49 205.702L1681.61 201.218C1719.45 184.487 1750.05 148.399 1756.95 106.843C1766.18 51.3989 1729.46 5.25009 1673.27 5.25009H1383.72V5.14062Z" fill="#4D4D4D"/>
<path fill-rule="evenodd" clip-rule="evenodd" d="M392.471 3.82617H157.676C86.2367 3.82617 18.8031 63.207 7.00774 133.961L1.77771 165.237C-9.79507 234.679 36.2734 292.638 106.823 292.638H344.51L354.97 229.758H131.081C94.3599 229.758 69.4339 198.701 75.4429 162.503L80.6729 131.227C86.5706 96.0141 119.842 66.7065 155.451 66.7065H382.122L392.471 3.82617Z" fill="#4D4D4D"/>
<path fill-rule="evenodd" clip-rule="evenodd" d="M660.871 229.648H509.757C473.035 229.648 448.109 198.591 454.118 162.394L459.348 131.118C465.246 95.905 498.518 66.597 534.126 66.597H685.24C721.962 66.597 746.888 97.6547 740.879 133.852L735.649 165.128C729.862 200.341 696.479 229.648 660.871 229.648ZM708.497 3.82617H539.801C468.362 3.82617 400.928 63.207 389.133 133.961L383.903 165.237C372.33 234.679 418.399 292.638 488.948 292.638H657.755C729.195 292.638 796.628 233.257 808.424 162.503L813.654 131.227C825.115 61.676 779.047 3.82617 708.497 3.82617Z" fill="#4D4D4D"/>
<path fill-rule="evenodd" clip-rule="evenodd" d="M2176.79 5.14062L2302.31 146.54L2019.89 381.001H2122.49L2406.36 142.712L2283.4 5.14062H2176.79Z" fill="#FFC21B"/>
<path fill-rule="evenodd" clip-rule="evenodd" d="M2367.97 204.499L2444.86 291.11H2551.35L2428.95 153.21L2367.97 204.499ZM2431.28 136.588L2591.63 5.14062H2489.15L2388 88.0335L2431.28 136.588Z" fill="#4D4D4D"/>
<path fill-rule="evenodd" clip-rule="evenodd" d="M1907.73 122.154L1899.05 174.099H2107.13L2115.81 122.154H1907.73Z" fill="#4D4D4D"/>
</svg>
