<svg width="48" height="48" viewBox="0 0 48 48" fill="none" xmlns="http://www.w3.org/2000/svg">
    <g clip-path="url(#clip0_2779_4953)">
        <path d="M0 9.6C0 6.23968 0 4.55953 0.653961 3.27606C1.2292 2.14708 2.14708 1.2292 3.27606 0.653961C4.55953 0 6.23969 0 9.6 0H38.4C41.7603 0 43.4405 0 44.7239 0.653961C45.8529 1.2292 46.7708 2.14708 47.346 3.27606C48 4.55953 48 6.23969 48 9.6V38.4C48 41.7603 48 43.4405 47.346 44.7239C46.7708 45.8529 45.8529 46.7708 44.7239 47.346C43.4405 48 41.7603 48 38.4 48H9.6C6.23968 48 4.55953 48 3.27606 47.346C2.14708 46.7708 1.2292 45.8529 0.653961 44.7239C0 43.4405 0 41.7603 0 38.4V9.6Z" fill="#B7D9F8"/>
        <rect x="7" y="7" width="34" height="12" rx="6" fill="#F5FAFF"/>
        <path fill-rule="evenodd" clip-rule="evenodd" d="M11.5 10.75C11.5 10.6119 11.3881 10.5 11.25 10.5C11.1119 10.5 11 10.6119 11 10.75V11V13.5V15.25C11 15.3881 11.1119 15.5 11.25 15.5C11.3881 15.5 11.5 15.3881 11.5 15.25V13.75H14.75C14.8401 13.75 14.9232 13.7016 14.9676 13.6232C15.0119 13.5448 15.0107 13.4486 14.9644 13.3714L14.2915 12.25L14.9644 11.1286C15.0107 11.0514 15.0119 10.9552 14.9676 10.8768C14.9232 10.7984 14.8401 10.75 14.75 10.75H11.5Z" fill="#0B68CB"/>
        <path d="M18 13C18 12.1716 18.6716 11.5 19.5 11.5H25.14C25.9684 11.5 26.64 12.1716 26.64 13C26.64 13.8284 25.9684 14.5 25.14 14.5H19.5C18.6716 14.5 18 13.8284 18 13Z" fill="#CEE7FE"/>
        <path d="M28.6396 13C28.6396 12.1716 29.3112 11.5 30.1396 11.5H34.4996C35.3281 11.5 35.9996 12.1716 35.9996 13C35.9996 13.8284 35.3281 14.5 34.4996 14.5H30.1396C29.3112 14.5 28.6396 13.8284 28.6396 13Z" fill="#CEE7FE"/>
        <rect x="15" y="23" width="40" height="12" rx="6" fill="#F5FAFF"/>
        <g clip-path="url(#clip1_2779_4953)">
            <path fill-rule="evenodd" clip-rule="evenodd" d="M21.0002 26.75C21.0964 26.75 21.184 26.8051 21.2256 26.8917L21.8179 28.1246L23.1734 28.3069C23.2687 28.3198 23.3482 28.386 23.3779 28.4775C23.4076 28.5689 23.3822 28.6692 23.3127 28.7356L22.3232 29.6799L22.5687 31.0254C22.5859 31.12 22.5475 31.216 22.4697 31.2725C22.3919 31.329 22.2887 31.336 22.2041 31.2903L21.0002 30.641L19.7964 31.2903C19.7118 31.336 19.6085 31.329 19.5308 31.2725C19.453 31.216 19.4145 31.12 19.4318 31.0254L19.6773 29.6799L18.6878 28.7356C18.6182 28.6692 18.5929 28.5689 18.6226 28.4775C18.6523 28.386 18.7318 28.3198 18.827 28.3069L20.1826 28.1246L20.7749 26.8917C20.8165 26.8051 20.9041 26.75 21.0002 26.75Z" fill="#0B68CB"/>
        </g>
        <path d="M26 29C26 28.1716 26.6716 27.5 27.5 27.5H33.14C33.9684 27.5 34.64 28.1716 34.64 29C34.64 29.8284 33.9684 30.5 33.14 30.5H27.5C26.6716 30.5 26 29.8284 26 29Z" fill="#CEE7FE"/>
        <path d="M36.6396 29C36.6396 28.1716 37.3112 27.5 38.1396 27.5H48.4996C49.3281 27.5 49.9996 28.1716 49.9996 29C49.9996 29.8284 49.3281 30.5 48.4996 30.5H38.1397C37.3112 30.5 36.6396 29.8284 36.6396 29Z" fill="#CEE7FE"/>
        <rect x="23" y="39" width="34" height="12" rx="6" fill="#F5FAFF"/>
        <path d="M27.5 44.1667C27.5 43.7985 27.7985 43.5 28.1667 43.5H29.8333C30.2015 43.5 30.5 43.7985 30.5 44.1667V45.8333C30.5 46.2015 30.2015 46.5 29.8333 46.5H28.1667C27.7985 46.5 27.5 46.2015 27.5 45.8333V44.1667Z" fill="#0B68CB"/>
        <path d="M34 45C34 44.1716 34.6716 43.5 35.5 43.5H41.14C41.9684 43.5 42.64 44.1716 42.64 45C42.64 45.8284 41.9684 46.5 41.14 46.5H35.5C34.6716 46.5 34 45.8284 34 45Z" fill="#CEE7FE"/>
        <path d="M44.6396 45C44.6396 44.1716 45.3112 43.5 46.1396 43.5H50.4996C51.3281 43.5 51.9996 44.1716 51.9996 45C51.9996 45.8284 51.3281 46.5 50.4996 46.5H46.1396C45.3112 46.5 44.6396 45.8284 44.6396 45Z" fill="#CEE7FE"/>
    </g>
    <path d="M0.5 9.6C0.5 7.91159 0.500389 6.67536 0.580085 5.69993C0.659303 4.73034 0.814384 4.06255 1.09946 3.50305C1.62677 2.46816 2.46816 1.62677 3.50305 1.09946C4.06255 0.814384 4.73034 0.659303 5.69993 0.580085C6.67536 0.500389 7.91159 0.5 9.6 0.5H38.4C40.0884 0.5 41.3246 0.500389 42.3001 0.580085C43.2697 0.659303 43.9374 0.814384 44.4969 1.09946C45.5318 1.62677 46.3732 2.46816 46.9005 3.50305C47.1856 4.06255 47.3407 4.73034 47.4199 5.69993C47.4996 6.67536 47.5 7.91159 47.5 9.6V38.4C47.5 40.0884 47.4996 41.3246 47.4199 42.3001C47.3407 43.2697 47.1856 43.9374 46.9005 44.4969C46.3732 45.5318 45.5318 46.3732 44.4969 46.9005C43.9374 47.1856 43.2697 47.3407 42.3001 47.4199C41.3246 47.4996 40.0884 47.5 38.4 47.5H9.6C7.91159 47.5 6.67536 47.4996 5.69993 47.4199C4.73034 47.3407 4.06255 47.1856 3.50305 46.9005C2.46816 46.3732 1.62677 45.5318 1.09946 44.4969C0.814384 43.9374 0.659303 43.2697 0.580085 42.3001C0.500389 41.3246 0.5 40.0884 0.5 38.4V9.6Z" stroke="black" stroke-opacity="0.05"/>
    <defs>
        <clipPath id="clip0_2779_4953">
            <path d="M0 9.6C0 6.23968 0 4.55953 0.653961 3.27606C1.2292 2.14708 2.14708 1.2292 3.27606 0.653961C4.55953 0 6.23969 0 9.6 0H38.4C41.7603 0 43.4405 0 44.7239 0.653961C45.8529 1.2292 46.7708 2.14708 47.346 3.27606C48 4.55953 48 6.23969 48 9.6V38.4C48 41.7603 48 43.4405 47.346 44.7239C46.7708 45.8529 45.8529 46.7708 44.7239 47.346C43.4405 48 41.7603 48 38.4 48H9.6C6.23968 48 4.55953 48 3.27606 47.346C2.14708 46.7708 1.2292 45.8529 0.653961 44.7239C0 43.4405 0 41.7603 0 38.4V9.6Z" fill="white"/>
        </clipPath>
        <clipPath id="clip1_2779_4953">
            <rect width="6" height="6" fill="white" transform="translate(18 26)"/>
        </clipPath>
    </defs>
</svg>
