<svg width="48" height="48" viewBox="0 0 48 48" fill="none" xmlns="http://www.w3.org/2000/svg">
    <g clip-path="url(#clip0_2779_4859)">
        <path d="M0 9.6C0 6.23968 0 4.55953 0.653961 3.27606C1.2292 2.14708 2.14708 1.2292 3.27606 0.653961C4.55953 0 6.23969 0 9.6 0H38.4C41.7603 0 43.4405 0 44.7239 0.653961C45.8529 1.2292 46.7708 2.14708 47.346 3.27606C48 4.55953 48 6.23969 48 9.6V38.4C48 41.7603 48 43.4405 47.346 44.7239C46.7708 45.8529 45.8529 46.7708 44.7239 47.346C43.4405 48 41.7603 48 38.4 48H9.6C6.23968 48 4.55953 48 3.27606 47.346C2.14708 46.7708 1.2292 45.8529 0.653961 44.7239C0 43.4405 0 41.7603 0 38.4V9.6Z" fill="#C6D4F9"/>
        <path d="M8 35C8 32.2386 10.2386 30 13 30H48V48H8V35Z" fill="#F8FAFF"/>
        <rect x="12" y="50" width="6" height="9" transform="rotate(-90 12 50)" fill="#3A5CCC"/>
        <path d="M12 44L12 36C12 34.8954 12.8954 34 14 34L19 34C20.1046 34 21 34.8954 21 36L21 44L12 44Z" fill="#E6EDFE"/>
        <path d="M24.92 54C23.8596 54 23 53.1404 23 52.08L23 44L32 44L32 52.08C32 53.1404 31.1404 54 30.08 54L24.92 54Z" fill="#1F2D5C"/>
        <rect x="23" y="44" width="4" height="9" transform="rotate(-90 23 44)" fill="#3A5CCC"/>
        <path d="M23 40L23 36C23 34.8954 23.8954 34 25 34L30 34C31.1046 34 32 34.8954 32 36L32 40L23 40Z" fill="#E6EDFE"/>
        <rect x="34" y="50" width="7" height="9" transform="rotate(-90 34 50)" fill="#3A5CCC"/>
        <path d="M34 43L34 36C34 34.8954 34.8954 34 36 34L41 34C42.1046 34 43 34.8954 43 36L43 43L34 43Z" fill="#E6EDFE"/>
        <path d="M45 48L45 36C45 34.8954 45.8954 34 47 34L52 34C53.1046 34 54 34.8954 54 36L54 48L45 48Z" fill="#E6EDFE"/>
        <rect x="8" y="8" width="18" height="18" rx="4" fill="#F8FAFF"/>
        <path d="M10.5 17C10.5 17.8536 10.6681 18.6988 10.9948 19.4874C11.3214 20.2761 11.8002 20.9926 12.4038 21.5962C13.0074 22.1998 13.7239 22.6786 14.5126 23.0052C15.3012 23.3319 16.1464 23.5 17 23.5L17 17L10.5 17Z" fill="#D9E2FC"/>
        <path d="M17 23.5C18.6052 23.5 20.1537 22.906 21.3471 21.8325L17 17L17 23.5Z" fill="#3A5CCC"/>
        <path d="M22.9382 14.3566C23.4964 15.6106 23.6433 17.0092 23.3579 18.3518C23.0724 19.6945 22.3692 20.9123 21.349 21.8307L17 17L22.9382 14.3566Z" fill="#3A5CCC"/>
        <path d="M20.2496 11.3706C21.4385 12.0569 22.3795 13.1019 22.9379 14.3558L17 17L20.2496 11.3706Z" fill="#8DA4EF"/>
        <path d="M10.5 17C10.5 15.8591 10.8003 14.7384 11.3707 13.7503C11.941 12.7622 12.7614 11.9417 13.7494 11.3712C14.7374 10.8006 15.8581 10.5002 16.999 10.5C18.1399 10.4998 19.2607 10.7999 20.2488 11.3702L17 17L10.5 17Z" fill="#D9E2FC"/>
        <path d="M18.3514 10.642C19.0186 10.7839 19.6593 11.0298 20.25 11.3708L17 17L18.3514 10.642Z" fill="#8DA4EF"/>
        <circle cx="17" cy="17" r="6.18" transform="rotate(-90 17 17)" stroke="#F8FAFF" stroke-width="0.64"/>
        <path d="M30 12C30 9.79086 31.7909 8 34 8H48V26H34C31.7909 26 30 24.2091 30 22V12Z" fill="#F8FAFF"/>
        <path d="M34 21C34 21.5523 34.4477 22 35 22H43C43.5523 22 44 21.5523 44 21L44 19C44 18.4477 43.5523 18 43 18H35C34.4477 18 34 18.4477 34 19L34 21Z" fill="#3E63DD"/>
        <path d="M38 15C38 15.5523 38.4477 16 39 16L53 16C53.5523 16 54 15.5523 54 15L54 13C54 12.4477 53.5523 12 53 12H39C38.4477 12 38 12.4477 38 13L38 15Z" fill="#AEC0F5"/>
    </g>
    <path d="M0.5 9.6C0.5 7.91159 0.500389 6.67536 0.580085 5.69993C0.659303 4.73034 0.814384 4.06255 1.09946 3.50305C1.62677 2.46816 2.46816 1.62677 3.50305 1.09946C4.06255 0.814384 4.73034 0.659303 5.69993 0.580085C6.67536 0.500389 7.91159 0.5 9.6 0.5H38.4C40.0884 0.5 41.3246 0.500389 42.3001 0.580085C43.2697 0.659303 43.9374 0.814384 44.4969 1.09946C45.5318 1.62677 46.3732 2.46816 46.9005 3.50305C47.1856 4.06255 47.3407 4.73034 47.4199 5.69993C47.4996 6.67536 47.5 7.91159 47.5 9.6V38.4C47.5 40.0884 47.4996 41.3246 47.4199 42.3001C47.3407 43.2697 47.1856 43.9374 46.9005 44.4969C46.3732 45.5318 45.5318 46.3732 44.4969 46.9005C43.9374 47.1856 43.2697 47.3407 42.3001 47.4199C41.3246 47.4996 40.0884 47.5 38.4 47.5H9.6C7.91159 47.5 6.67536 47.4996 5.69993 47.4199C4.73034 47.3407 4.06255 47.1856 3.50305 46.9005C2.46816 46.3732 1.62677 45.5318 1.09946 44.4969C0.814384 43.9374 0.659303 43.2697 0.580085 42.3001C0.500389 41.3246 0.5 40.0884 0.5 38.4V9.6Z" stroke="black" stroke-opacity="0.05"/>
    <defs>
        <clipPath id="clip0_2779_4859">
            <path d="M0 9.6C0 6.23968 0 4.55953 0.653961 3.27606C1.2292 2.14708 2.14708 1.2292 3.27606 0.653961C4.55953 0 6.23969 0 9.6 0H38.4C41.7603 0 43.4405 0 44.7239 0.653961C45.8529 1.2292 46.7708 2.14708 47.346 3.27606C48 4.55953 48 6.23969 48 9.6V38.4C48 41.7603 48 43.4405 47.346 44.7239C46.7708 45.8529 45.8529 46.7708 44.7239 47.346C43.4405 48 41.7603 48 38.4 48H9.6C6.23968 48 4.55953 48 3.27606 47.346C2.14708 46.7708 1.2292 45.8529 0.653961 44.7239C0 43.4405 0 41.7603 0 38.4V9.6Z" fill="white"/>
        </clipPath>
    </defs>
</svg>
