<svg width="48" height="48" viewBox="0 0 48 48" fill="none" xmlns="http://www.w3.org/2000/svg">
    <g clip-path="url(#clip0_2779_4899)">
        <path d="M0 9.6C0 6.23968 0 4.55953 0.653961 3.27606C1.2292 2.14708 2.14708 1.2292 3.27606 0.653961C4.55953 0 6.23969 0 9.6 0H38.4C41.7603 0 43.4405 0 44.7239 0.653961C45.8529 1.2292 46.7708 2.14708 47.346 3.27606C48 4.55953 48 6.23969 48 9.6V38.4C48 41.7603 48 43.4405 47.346 44.7239C46.7708 45.8529 45.8529 46.7708 44.7239 47.346C43.4405 48 41.7603 48 38.4 48H9.6C6.23968 48 4.55953 48 3.27606 47.346C2.14708 46.7708 1.2292 45.8529 0.653961 44.7239C0 43.4405 0 41.7603 0 38.4V9.6Z" fill="#FFC291"/>
        <path d="M16 40C17.1046 40 18 39.1046 18 38L18 20C18 18.8954 17.1046 18 16 18L10 18C8.89543 18 8 18.8954 8 20L8 38C8 39.1046 8.89543 40 10 40L16 40Z" fill="#FEFCFB"/>
        <path d="M28 40C29.1046 40 30 39.1046 30 38L30 24C30 22.8954 29.1046 22 28 22L22 22C20.8954 22 20 22.8954 20 24L20 38C20 39.1046 20.8954 40 22 40L28 40Z" fill="#FFEDD5"/>
        <path d="M40 40C41.1046 40 42 39.1046 42 38L42 28C42 26.8954 41.1046 26 40 26L34 26C32.8954 26 32 26.8954 32 28L32 38C32 39.1046 32.8954 40 34 40L40 40Z" fill="#FFE0BB"/>
        <path d="M52 40C53.1046 40 54 39.1046 54 38L54 33C54 31.8954 53.1046 31 52 31L46 31C44.8954 31 44 31.8954 44 33L44 38C44 39.1046 44.8954 40 46 40L52 40Z" fill="#FFD3A4"/>
        <path d="M12.5 10.5L24.5 14.5L37.5 19.5H48" stroke="#FFE0BB" stroke-width="2"/>
        <circle cx="13" cy="11" r="3" fill="#ED5F00"/>
        <circle cx="25" cy="15" r="3" fill="#99543A"/>
        <circle cx="37" cy="19" r="3" fill="#ED5F00"/>
    </g>
    <path d="M0.5 9.6C0.5 7.91159 0.500389 6.67536 0.580085 5.69993C0.659303 4.73034 0.814384 4.06255 1.09946 3.50305C1.62677 2.46816 2.46816 1.62677 3.50305 1.09946C4.06255 0.814384 4.73034 0.659303 5.69993 0.580085C6.67536 0.500389 7.91159 0.5 9.6 0.5H38.4C40.0884 0.5 41.3246 0.500389 42.3001 0.580085C43.2697 0.659303 43.9374 0.814384 44.4969 1.09946C45.5318 1.62677 46.3732 2.46816 46.9005 3.50305C47.1856 4.06255 47.3407 4.73034 47.4199 5.69993C47.4996 6.67536 47.5 7.91159 47.5 9.6V38.4C47.5 40.0884 47.4996 41.3246 47.4199 42.3001C47.3407 43.2697 47.1856 43.9374 46.9005 44.4969C46.3732 45.5318 45.5318 46.3732 44.4969 46.9005C43.9374 47.1856 43.2697 47.3407 42.3001 47.4199C41.3246 47.4996 40.0884 47.5 38.4 47.5H9.6C7.91159 47.5 6.67536 47.4996 5.69993 47.4199C4.73034 47.3407 4.06255 47.1856 3.50305 46.9005C2.46816 46.3732 1.62677 45.5318 1.09946 44.4969C0.814384 43.9374 0.659303 43.2697 0.580085 42.3001C0.500389 41.3246 0.5 40.0884 0.5 38.4V9.6Z" stroke="black" stroke-opacity="0.05"/>
    <defs>
        <clipPath id="clip0_2779_4899">
            <path d="M0 9.6C0 6.23968 0 4.55953 0.653961 3.27606C1.2292 2.14708 2.14708 1.2292 3.27606 0.653961C4.55953 0 6.23969 0 9.6 0H38.4C41.7603 0 43.4405 0 44.7239 0.653961C45.8529 1.2292 46.7708 2.14708 47.346 3.27606C48 4.55953 48 6.23969 48 9.6V38.4C48 41.7603 48 43.4405 47.346 44.7239C46.7708 45.8529 45.8529 46.7708 44.7239 47.346C43.4405 48 41.7603 48 38.4 48H9.6C6.23968 48 4.55953 48 3.27606 47.346C2.14708 46.7708 1.2292 45.8529 0.653961 44.7239C0 43.4405 0 41.7603 0 38.4V9.6Z" fill="white"/>
        </clipPath>
    </defs>
</svg>
