<svg width="48" height="48" viewBox="0 0 48 48" fill="none" xmlns="http://www.w3.org/2000/svg">
    <path d="M0 9.6C0 6.23968 0 4.55953 0.653961 3.27606C1.2292 2.14708 2.14708 1.2292 3.27606 0.653961C4.55953 0 6.23969 0 9.6 0H38.4C41.7603 0 43.4405 0 44.7239 0.653961C45.8529 1.2292 46.7708 2.14708 47.346 3.27606C48 4.55953 48 6.23969 48 9.6V38.4C48 41.7603 48 43.4405 47.346 44.7239C46.7708 45.8529 45.8529 46.7708 44.7239 47.346C43.4405 48 41.7603 48 38.4 48H9.6C6.23968 48 4.55953 48 3.27606 47.346C2.14708 46.7708 1.2292 45.8529 0.653961 44.7239C0 43.4405 0 41.7603 0 38.4V9.6Z" fill="#AFDFD7"/>
    <path d="M0.5 9.6C0.5 7.91159 0.500389 6.67536 0.580085 5.69993C0.659303 4.73034 0.814384 4.06255 1.09946 3.50305C1.62677 2.46816 2.46816 1.62677 3.50305 1.09946C4.06255 0.814384 4.73034 0.659303 5.69993 0.580085C6.67536 0.500389 7.91159 0.5 9.6 0.5H38.4C40.0884 0.5 41.3246 0.500389 42.3001 0.580085C43.2697 0.659303 43.9374 0.814384 44.4969 1.09946C45.5318 1.62677 46.3732 2.46816 46.9005 3.50305C47.1856 4.06255 47.3407 4.73034 47.4199 5.69993C47.4996 6.67536 47.5 7.91159 47.5 9.6V38.4C47.5 40.0884 47.4996 41.3246 47.4199 42.3001C47.3407 43.2697 47.1856 43.9374 46.9005 44.4969C46.3732 45.5318 45.5318 46.3732 44.4969 46.9005C43.9374 47.1856 43.2697 47.3407 42.3001 47.4199C41.3246 47.4996 40.0884 47.5 38.4 47.5H9.6C7.91159 47.5 6.67536 47.4996 5.69993 47.4199C4.73034 47.3407 4.06255 47.1856 3.50305 46.9005C2.46816 46.3732 1.62677 45.5318 1.09946 44.4969C0.814384 43.9374 0.659303 43.2697 0.580085 42.3001C0.500389 41.3246 0.5 40.0884 0.5 38.4V9.6Z" stroke="black" stroke-opacity="0.05"/>
    <path fill-rule="evenodd" clip-rule="evenodd" d="M10 10C10 8.89543 10.8954 8 12 8C13.1046 8 14 8.89543 14 10V25C14 26.1046 13.1046 27 12 27C10.8954 27 10 26.1046 10 25V10Z" fill="#F1FCFA"/>
    <path fill-rule="evenodd" clip-rule="evenodd" d="M10 14C10 12.8954 10.8954 12 12 12C13.1046 12 14 12.8954 14 14V25C14 26.1046 13.1046 27 12 27C10.8954 27 10 26.1046 10 25V14Z" fill="#067A6F"/>
    <path fill-rule="evenodd" clip-rule="evenodd" d="M22 10C22 8.89543 22.8954 8 24 8C25.1046 8 26 8.89543 26 10V25C26 26.1046 25.1046 27 24 27C22.8954 27 22 26.1046 22 25V10Z" fill="#F1FCFA"/>
    <path fill-rule="evenodd" clip-rule="evenodd" d="M22 19C22 17.8954 22.8954 17 24 17C25.1046 17 26 17.8954 26 19V25C26 26.1046 25.1046 27 24 27C22.8954 27 22 26.1046 22 25V19Z" fill="#8DCEC3"/>
    <path fill-rule="evenodd" clip-rule="evenodd" d="M34 10C34 8.89543 34.8954 8 36 8C37.1046 8 38 8.89543 38 10V25C38 26.1046 37.1046 27 36 27C34.8954 27 34 26.1046 34 25V10Z" fill="#F1FCFA"/>
    <path fill-rule="evenodd" clip-rule="evenodd" d="M34 17C34 15.8954 34.8954 15 36 15C37.1046 15 38 15.8954 38 17V25C38 26.1046 37.1046 27 36 27C34.8954 27 34 26.1046 34 25V17Z" fill="#0E9888"/>
    <path d="M35.9999 36C38.1365 36 39.5608 37.3893 39.976 39.01C40.1132 39.5458 39.6425 40 39.0762 40H32.9238C32.3575 40 31.8868 39.5458 32.024 39.01C32.4392 37.3893 33.8633 36 35.9999 36Z" fill="#53B9AB"/>
    <circle cx="35.9997" cy="32.6667" r="2.66667" fill="#F1FCFA"/>
    <path d="M23.9999 36C26.1365 36 27.5608 37.3893 27.976 39.01C28.1132 39.5458 27.6425 40 27.0762 40H20.9238C20.3575 40 19.8868 39.5458 20.024 39.01C20.4392 37.3893 21.8633 36 23.9999 36Z" fill="#F1FCFA"/>
    <circle cx="23.9997" cy="32.6667" r="2.66667" fill="#067A6F"/>
    <path d="M11.9999 36C14.1365 36 15.5608 37.3893 15.976 39.01C16.1132 39.5458 15.6425 40 15.0762 40H8.92382C8.35751 40 7.88679 39.5458 8.02403 39.01C8.43915 37.3893 9.86334 36 11.9999 36Z" fill="#53B9AB"/>
    <circle cx="11.9997" cy="32.6667" r="2.66667" fill="#F1FCFA"/>
</svg>
