<svg width="48" height="48" viewBox="0 0 48 48" fill="none" xmlns="http://www.w3.org/2000/svg">
    <g clip-path="url(#clip0_3162_9531)">
        <rect width="48" height="48" rx="6" fill="#F5D08C"/>
        <path d="M35.9999 36C38.1365 36 39.5608 37.3893 39.976 39.01C40.1132 39.5458 39.6425 40 39.0762 40H32.9238C32.3575 40 31.8868 39.5458 32.024 39.01C32.4392 37.3893 33.8633 36 35.9999 36Z" fill="#D6A35C"/>
        <circle cx="35.9997" cy="32.6667" r="2.66667" fill="#FFF9ED"/>
        <path d="M23.9999 36C26.1365 36 27.5608 37.3893 27.976 39.01C28.1132 39.5458 27.6425 40 27.0762 40H20.9238C20.3575 40 19.8868 39.5458 20.024 39.01C20.4392 37.3893 21.8633 36 23.9999 36Z" fill="#FFF9ED"/>
        <circle cx="23.9997" cy="32.6667" r="2.66667" fill="#915930"/>
        <path d="M47.9999 36C50.1365 36 51.5608 37.3893 51.976 39.01C52.1132 39.5458 51.6425 40 51.0762 40H44.9238C44.3575 40 43.8868 39.5458 44.024 39.01C44.4392 37.3893 45.8633 36 47.9999 36Z" fill="#FFF9ED"/>
        <circle cx="47.9997" cy="32.6667" r="2.66667" fill="#915930"/>
        <path d="M11.9999 36C14.1365 36 15.5608 37.3893 15.976 39.01C16.1132 39.5458 15.6425 40 15.0762 40H8.92382C8.35751 40 7.88679 39.5458 8.02403 39.01C8.43915 37.3893 9.86334 36 11.9999 36Z" fill="#D6A35C"/>
        <circle cx="11.9997" cy="32.6667" r="2.66667" fill="#FFF9ED"/>
        <rect x="8" y="8" width="18" height="18" rx="4" fill="#FFF9ED"/>
        <path d="M10.5 17C10.5 17.8536 10.6681 18.6988 10.9948 19.4874C11.3214 20.2761 11.8002 20.9926 12.4038 21.5962C13.0074 22.1998 13.7239 22.6786 14.5126 23.0052C15.3012 23.3319 16.1464 23.5 17 23.5L17 17L10.5 17Z" fill="#FFE0A1"/>
        <path d="M17 23.5C18.6052 23.5 20.1537 22.906 21.3471 21.8325L17 17L17 23.5Z" fill="#915930"/>
        <path d="M22.9382 14.3566C23.4964 15.6106 23.6433 17.0092 23.3579 18.3518C23.0724 19.6945 22.3692 20.9123 21.349 21.8307L17 17L22.9382 14.3566Z" fill="#915930"/>
        <path d="M20.2496 11.3706C21.4385 12.0569 22.3795 13.1019 22.9379 14.3558L17 17L20.2496 11.3706Z" fill="#D6A35C"/>
        <path d="M10.5 17C10.5 15.8591 10.8003 14.7384 11.3707 13.7503C11.941 12.7622 12.7614 11.9417 13.7494 11.3712C14.7374 10.8006 15.8581 10.5002 16.999 10.5C18.1399 10.4998 19.2607 10.7999 20.2488 11.3702L17 17L10.5 17Z" fill="#FFE0A1"/>
        <path d="M18.3514 10.642C19.0186 10.7839 19.6593 11.0298 20.25 11.3708L17 17L18.3514 10.642Z" fill="#D6A35C"/>
        <circle cx="17" cy="17" r="6.18" transform="rotate(-90 17 17)" stroke="#FFF9ED" stroke-width="0.64"/>
        <path d="M30 12C30 9.79086 31.7909 8 34 8H48V26H34C31.7909 26 30 24.2091 30 22V12Z" fill="#FFF9ED"/>
        <path d="M34 23C33.4477 23 33 22.5523 33 22L33 20L38 20L38 22C38 22.5523 37.5523 23 37 23L34 23Z" fill="#915930"/>
        <rect x="33" y="20" width="3" height="5" transform="rotate(-90 33 20)" fill="#D6A35C"/>
        <path d="M33 17L33 12C33 11.4477 33.4477 11 34 11L37 11C37.5523 11 38 11.4477 38 12L38 17L33 17Z" fill="#FFE0A1"/>
        <path d="M48 23C47.4477 23 47 22.5523 47 22L47 20L52 20L52 22C52 22.5523 51.5523 23 51 23L48 23Z" fill="#915930"/>
        <rect x="47" y="20" width="3" height="5" transform="rotate(-90 47 20)" fill="#D6A35C"/>
        <path d="M47 17L47 12C47 11.4477 47.4477 11 48 11L51 11C51.5523 11 52 11.4477 52 12L52 17L47 17Z" fill="#FFE0A1"/>
        <path d="M41 23C40.4477 23 40 22.5523 40 22L40 18L45 18L45 22C45 22.5523 44.5523 23 44 23L41 23Z" fill="#915930"/>
        <rect x="40" y="18" width="3" height="5" transform="rotate(-90 40 18)" fill="#D6A35C"/>
        <path d="M40 15L40 12C40 11.4477 40.4477 11 41 11L44 11C44.5523 11 45 11.4477 45 12L45 15L40 15Z" fill="#FFE0A1"/>
    </g>
    <rect x="0.5" y="0.5" width="47" height="47" rx="5.5" stroke="black" stroke-opacity="0.05"/>
    <defs>
        <clipPath id="clip0_3162_9531">
            <rect width="48" height="48" rx="6" fill="white"/>
        </clipPath>
    </defs>
</svg>
